HIERARCHY
ROOT __0
{
	OFFSET 0.0 0.0 0.0
	CHANNELS 0
	JOINT Hips
	{
		OFFSET 0.000000 0.000000 0.000000
		CHANNELS 6 Xposition Yposition Zposition Xrotation Yrotation Zrotation
		JOINT Spine
		{
			OFFSET 10.005940 -0.000000 0.000014
			CHANNELS 6 Xposition Yposition Zposition Xrotation Yrotation Zrotation
			JOINT Spine1
			{
				OFFSET 21.665001 -0.000000 -0.000000
				CHANNELS 6 Xposition Yposition Zposition Xrotation Yrotation Zrotation
				JOINT Neck
				{
					OFFSET 25.833000 0.000000 -0.000000
					CHANNELS 6 Xposition Yposition Zposition Xrotation Yrotation Zrotation
					JOINT Head
					{
						OFFSET 14.033596 -0.000000 0.000000
						CHANNELS 6 Xposition Yposition Zposition Xrotation Yrotation Zrotation
						JOINT HeadNub
						{
							OFFSET 21.600510 0.000000 0.000000
							CHANNELS 6 Xposition Yposition Zposition Xrotation Yrotation Zrotation
							End Site
							{
								OFFSET 0.000000 21.600510 0.000000
							}
						}
					}
				}
				JOINT LeftShoulder
				{
					OFFSET 21.665001 -0.000000 3.045000
					CHANNELS 6 Xposition Yposition Zposition Xrotation Yrotation Zrotation
					JOINT LeftArm
					{
						OFFSET 0.000000 -0.000000 15.550001
						CHANNELS 6 Xposition Yposition Zposition Xrotation Yrotation Zrotation
						JOINT LeftForeArm
						{
							OFFSET -19.070633 0.000002 19.070707
							CHANNELS 6 Xposition Yposition Zposition Xrotation Yrotation Zrotation
							JOINT LeftHand
							{
								OFFSET -18.782471 0.000001 18.782467
								CHANNELS 6 Xposition Yposition Zposition Xrotation Yrotation Zrotation
								JOINT LeftHandThumb1
								{
									OFFSET -4.939494 -1.249041 0.422050
									CHANNELS 6 Xposition Yposition Zposition Xrotation Yrotation Zrotation
									JOINT LeftHandThumb2
									{
										OFFSET -2.517302 0.000000 2.517300
										CHANNELS 6 Xposition Yposition Zposition Xrotation Yrotation Zrotation
										JOINT LeftHandThumb3
										{
											OFFSET -1.826117 0.000000 1.826115
											CHANNELS 6 Xposition Yposition Zposition Xrotation Yrotation Zrotation
											End Site
											{
												OFFSET 0.000000 -2.582519 0.000000
											}
										}
									}
								}
								JOINT LeftHandIndex1
								{
									OFFSET -8.597697 0.000001 5.278145
									CHANNELS 6 Xposition Yposition Zposition Xrotation Yrotation Zrotation
									JOINT LeftHandIndex2
									{
										OFFSET -2.302887 0.000000 2.302887
										CHANNELS 6 Xposition Yposition Zposition Xrotation Yrotation Zrotation
										JOINT LeftHandIndex3
										{
											OFFSET -1.960194 0.000000 1.960197
											CHANNELS 6 Xposition Yposition Zposition Xrotation Yrotation Zrotation
											End Site
											{
												OFFSET -0.000000 -2.772133 0.000000
											}
										}
									}
								}
								JOINT LeftHandMiddle1
								{
									OFFSET -7.533892 0.000001 7.091263
									CHANNELS 6 Xposition Yposition Zposition Xrotation Yrotation Zrotation
									JOINT LeftHandMiddle2
									{
										OFFSET -2.425842 0.000000 2.425842
										CHANNELS 6 Xposition Yposition Zposition Xrotation Yrotation Zrotation
										JOINT LeftHandMiddle3
										{
											OFFSET -2.089242 0.000000 2.089241
											CHANNELS 6 Xposition Yposition Zposition Xrotation Yrotation Zrotation
											End Site
											{
												OFFSET -0.000000 -2.954633 0.000000
											}
										}
									}
								}
								JOINT LeftHandRing1
								{
									OFFSET -5.804094 0.000001 8.321640
									CHANNELS 6 Xposition Yposition Zposition Xrotation Yrotation Zrotation
									JOINT LeftHandRing2
									{
										OFFSET -2.291877 0.000000 2.291878
										CHANNELS 6 Xposition Yposition Zposition Xrotation Yrotation Zrotation
										JOINT LeftHandRing3
										{
											OFFSET -1.953971 0.000000 1.953972
											CHANNELS 6 Xposition Yposition Zposition Xrotation Yrotation Zrotation
											End Site
											{
												OFFSET -0.000000 -2.763332 0.000000
											}
										}
									}
								}
								JOINT LeftHandPinky1
								{
									OFFSET -3.770287 0.000000 8.934921
									CHANNELS 6 Xposition Yposition Zposition Xrotation Yrotation Zrotation
									JOINT LeftHandPinky2
									{
										OFFSET -1.968662 0.000000 1.968666
										CHANNELS 6 Xposition Yposition Zposition Xrotation Yrotation Zrotation
										JOINT LeftHandPinky3
										{
											OFFSET -1.410385 0.000000 1.410385
											CHANNELS 6 Xposition Yposition Zposition Xrotation Yrotation Zrotation
											End Site
											{
												OFFSET 0.000000 -1.994586 0.000000
											}
										}
									}
								}
							}
						}
					}
				}
				JOINT RightShoulder
				{
					OFFSET 21.665001 -0.000000 -3.045000
					CHANNELS 6 Xposition Yposition Zposition Xrotation Yrotation Zrotation
					JOINT RightArm
					{
						OFFSET 0.000057 -0.000000 -15.549999
						CHANNELS 6 Xposition Yposition Zposition Xrotation Yrotation Zrotation
						JOINT RightForeArm
						{
							OFFSET -19.070633 0.000002 -19.070709
							CHANNELS 6 Xposition Yposition Zposition Xrotation Yrotation Zrotation
							JOINT RightHand
							{
								OFFSET -18.782467 0.000002 -18.782467
								CHANNELS 6 Xposition Yposition Zposition Xrotation Yrotation Zrotation
								JOINT RightHandThumb1
								{
									OFFSET -4.939487 -1.249050 -0.422047
									CHANNELS 6 Xposition Yposition Zposition Xrotation Yrotation Zrotation
									JOINT RightHandThumb2
									{
										OFFSET -2.517301 0.000000 -2.517300
										CHANNELS 6 Xposition Yposition Zposition Xrotation Yrotation Zrotation
										JOINT RightHandThumb3
										{
											OFFSET -1.826117 0.000000 -1.826115
											CHANNELS 6 Xposition Yposition Zposition Xrotation Yrotation Zrotation
											End Site
											{
												OFFSET 0.000000 -2.582519 0.000000
											}
										}
									}
								}
								JOINT RightHandIndex1
								{
									OFFSET -8.597696 -0.000003 -5.278137
									CHANNELS 6 Xposition Yposition Zposition Xrotation Yrotation Zrotation
									JOINT RightHandIndex2
									{
										OFFSET -2.302887 0.000000 -2.302883
										CHANNELS 6 Xposition Yposition Zposition Xrotation Yrotation Zrotation
										JOINT RightHandIndex3
										{
											OFFSET -1.960194 0.000000 -1.960197
											CHANNELS 6 Xposition Yposition Zposition Xrotation Yrotation Zrotation
											End Site
											{
												OFFSET -0.000000 -2.772133 0.000000
											}
										}
									}
								}
								JOINT RightHandMiddle1
								{
									OFFSET -7.533897 -0.000002 -7.091248
									CHANNELS 6 Xposition Yposition Zposition Xrotation Yrotation Zrotation
									JOINT RightHandMiddle2
									{
										OFFSET -2.425842 0.000000 -2.425838
										CHANNELS 6 Xposition Yposition Zposition Xrotation Yrotation Zrotation
										JOINT RightHandMiddle3
										{
											OFFSET -2.089242 0.000000 -2.089241
											CHANNELS 6 Xposition Yposition Zposition Xrotation Yrotation Zrotation
											End Site
											{
												OFFSET -0.000000 -2.954633 0.000000
											}
										}
									}
								}
								JOINT RightHandRing1
								{
									OFFSET -5.804094 -0.000003 -8.321636
									CHANNELS 6 Xposition Yposition Zposition Xrotation Yrotation Zrotation
									JOINT RightHandRing2
									{
										OFFSET -2.291877 0.000000 -2.291878
										CHANNELS 6 Xposition Yposition Zposition Xrotation Yrotation Zrotation
										JOINT RightHandRing3
										{
											OFFSET -1.953971 0.000000 -1.953972
											CHANNELS 6 Xposition Yposition Zposition Xrotation Yrotation Zrotation
											End Site
											{
												OFFSET -0.000000 -2.763332 0.000000
											}
										}
									}
								}
								JOINT RightHandPinky1
								{
									OFFSET -3.770285 -0.000004 -8.934925
									CHANNELS 6 Xposition Yposition Zposition Xrotation Yrotation Zrotation
									JOINT RightHandPinky2
									{
										OFFSET -1.968663 0.000000 -1.968666
										CHANNELS 6 Xposition Yposition Zposition Xrotation Yrotation Zrotation
										JOINT RightHandPinky3
										{
											OFFSET -1.410385 0.000000 -1.410385
											CHANNELS 6 Xposition Yposition Zposition Xrotation Yrotation Zrotation
											End Site
											{
												OFFSET 0.000000 -1.994586 0.000000
											}
										}
									}
								}
							}
						}
					}
				}
			}
		}
		JOINT LeftUpLeg
		{
			OFFSET -0.000015 0.000018 9.994125
			CHANNELS 6 Xposition Yposition Zposition Xrotation Yrotation Zrotation
			JOINT LeftLeg
			{
				OFFSET 41.202610 0.000001 0.000001
				CHANNELS 6 Xposition Yposition Zposition Xrotation Yrotation Zrotation
				JOINT LeftFoot
				{
					OFFSET 40.704845 0.000000 -0.000001
					CHANNELS 6 Xposition Yposition Zposition Xrotation Yrotation Zrotation
					JOINT LeftToeBase
					{
						OFFSET 8.953568 12.877190 0.000000
						CHANNELS 6 Xposition Yposition Zposition Xrotation Yrotation Zrotation
						JOINT LeftToeNub
						{
							OFFSET 5.535667 0.000000 0.000000
							CHANNELS 6 Xposition Yposition Zposition Xrotation Yrotation Zrotation
							End Site
							{
								OFFSET 0.000000 5.535664 0.000000
							}
						}
					}
				}
			}
		}
		JOINT RightUpLeg
		{
			OFFSET 0.000015 -0.000010 -9.994125
			CHANNELS 6 Xposition Yposition Zposition Xrotation Yrotation Zrotation
			JOINT RightLeg
			{
				OFFSET 41.202610 0.000000 0.000001
				CHANNELS 6 Xposition Yposition Zposition Xrotation Yrotation Zrotation
				JOINT RightFoot
				{
					OFFSET 40.704845 0.000000 -0.000001
					CHANNELS 6 Xposition Yposition Zposition Xrotation Yrotation Zrotation
					JOINT RightToeBase
					{
						OFFSET 8.953568 12.877190 0.000000
						CHANNELS 6 Xposition Yposition Zposition Xrotation Yrotation Zrotation
						JOINT RightToeNub
						{
							OFFSET 5.535667 0.000000 0.000000
							CHANNELS 6 Xposition Yposition Zposition Xrotation Yrotation Zrotation
							End Site
							{
								OFFSET 0.000000 5.535664 0.000000
							}
						}
					}
				}
			}
		}
	}
	JOINT Prop
	{
		OFFSET 0.000000 0.000000 0.000000
		CHANNELS 6 Xposition Yposition Zposition Xrotation Yrotation Zrotation
		End Site
		{
			OFFSET 0.000000 1.000000 0.000000
		}
	}
}
MOTION
Frames: 4
Frame Time: 0.008333
31.180765 90.165382 106.281830 352.379076 105.361153 -257.212903 10.005944 0.000003 0.000014 -8.741269 0.340934 3.313643 21.664993 -0.000001 0.000002 -9.322697 -1.341050 2.453367 25.832981 0.000005 0.000001 -0.642284 0.349556 2.774727 14.033598 -0.000007 0.000003 0.369999 7.665888 -12.767327 21.600502 -0.000002 0.000004 0.000000 0.000000 -0.000000 21.664997 0.000005 3.045000 5.052981 -13.961538 -6.356322 -0.000022 0.000002 15.550008 -60.203965 13.885792 10.017001 -19.070639 0.000007 19.070705 -65.148147 44.408568 -65.148154 -18.782473 0.000012 18.782467 28.308141 -38.720356 -66.355841 -4.939501 -1.249071 0.422063 54.735613 -30.000008 -54.735606 -2.517278 0.000009 2.517326 -0.000002 -0.000003 0.000001 -1.826126 0.000009 1.826107 -0.000002 -0.000000 -0.000000 -8.597690 -0.000034 5.278152 0.000000 -0.000002 0.000000 -2.302893 -0.000016 2.302886 0.000003 -0.000003 0.000000 -1.960198 0.000003 1.960198 -0.000000 -0.000000 0.000003 -7.533880 -0.000020 7.091274 -0.000000 -0.000002 0.000001 -2.425846 -0.000018 2.425819 0.000002 -0.000003 0.000000 -2.089230 -0.000024 2.089264 0.000001 0.000003 -0.000000 -5.804097 -0.000025 8.321648 0.000000 -0.000002 -0.000002 -2.291875 -0.000012 2.291869 0.000003 -0.000007 0.000000 -1.953963 -0.000045 1.953980 0.000001 0.000002 -0.000000 -3.770293 -0.000031 8.934921 -0.000000 -0.000002 0.000000 -1.968666 -0.000005 1.968658 -0.000000 -0.000007 0.000001 -1.410399 -0.000014 1.410386 -0.000000 0.000000 0.000000 21.664980 0.000011 -3.044998 8.428024 8.648108 -8.650447 0.000055 -0.000014 -15.550001 -21.178656 -5.836592 68.843369 -19.070641 -0.000000 -19.070717 61.993932 -39.693808 -61.993946 -18.782471 0.000013 -18.782457 -33.354658 53.723280 -78.213616 -4.939485 -1.249042 -0.422047 54.735620 30.000008 54.735606 -2.517295 0.000021 -2.517291 0.000001 0.000000 -0.000003 -1.826112 -0.000007 -1.826095 -0.000003 -0.000002 0.000001 -8.597693 -0.000003 -5.278133 -0.000000 0.000002 0.000001 -2.302903 0.000001 -2.302883 0.000000 0.000003 -0.000003 -1.960214 0.000002 -1.960197 -0.000000 0.000007 -0.000001 -7.533889 -0.000002 -7.091255 0.000000 0.000002 0.000000 -2.425843 0.000000 -2.425822 0.000000 0.000007 -0.000002 -2.089249 0.000004 -2.089249 -0.000000 0.000000 -0.000000 -5.804091 -0.000001 -8.321629 -0.000000 0.000002 0.000001 -2.291862 -0.000002 -2.291885 0.000000 0.000009 -0.000001 -1.953962 -0.000000 -1.953987 -0.000000 0.000000 0.000000 -3.770277 -0.000001 -8.934917 -0.000000 0.000002 -0.000000 -1.968662 0.000002 -1.968658 0.000001 0.000003 -0.000003 -1.410372 -0.000002 -1.410393 -0.000000 0.000000 -0.000001 -0.000013 0.000019 9.994128 -6.373315 182.993622 21.324100 41.202610 0.000002 -0.000001 0.000001 0.000000 -47.629467 40.704845 -0.000002 0.000005 -10.525171 -4.328493 5.317467 8.953568 12.877190 -0.000002 -2.235742 -1.944858 109.314698 5.535667 -0.000001 0.000002 -0.000000 0.000001 -0.000000 0.000021 -0.000007 -9.994123 -10.186160 180.795995 26.708241 41.202618 -0.000006 0.000000 -0.000000 -0.000000 -52.315325 40.704853 -0.000002 0.000001 -3.464955 2.791026 -3.948214 8.953559 12.877182 0.000002 -1.362982 -1.158595 112.491679 5.535667 -0.000002 0.000000 0.000000 0.000000 0.000000 55.280914 0.000000 -0.964944 -0.000008 1.000000 -0.000000 
30.916033 89.533363 106.410301 352.929671 105.780096 -257.879967 10.005948 0.000005 0.000014 -6.654245 1.236916 3.308668 21.665001 0.000002 0.000002 -9.133239 -1.293190 2.358061 25.832996 0.000001 -0.000004 -1.775359 -0.449571 2.189376 14.033590 0.000002 0.000003 -0.962749 7.153164 -11.581049 21.600525 -0.000005 0.000003 0.000000 0.000000 0.000000 21.664997 0.000006 3.045001 4.745295 -15.026631 -6.509385 0.000023 0.000010 15.550007 -54.749850 5.456951 11.438939 -19.070631 0.000009 19.070709 -64.763902 43.818133 -64.763908 -18.782459 0.000004 18.782455 27.327759 -39.607543 -67.106171 -4.939486 -1.249056 0.422070 54.735616 -30.000008 -54.735609 -2.517281 -0.000014 2.517329 -0.000003 -0.000009 -0.000001 -1.826123 -0.000003 1.826099 -0.000001 -0.000003 -0.000003 -8.597701 -0.000010 5.278156 0.000002 -0.000002 -0.000002 -2.302876 0.000019 2.302902 0.000002 -0.000002 -0.000002 -1.960209 -0.000005 1.960190 0.000001 -0.000002 0.000001 -7.533903 -0.000009 7.091278 0.000002 -0.000002 -0.000003 -2.425829 -0.000002 2.425842 0.000003 -0.000000 -0.000005 -2.089237 -0.000011 2.089241 -0.000001 0.000003 0.000002 -5.804086 -0.000018 8.321663 0.000002 -0.000002 -0.000002 -2.291865 -0.000006 2.291877 -0.000000 -0.000005 -0.000003 -1.953963 0.000018 1.953988 -0.000001 0.000002 0.000001 -3.770299 -0.000007 8.934921 0.000002 -0.000002 -0.000003 -1.968656 0.000022 1.968665 -0.000003 -0.000009 -0.000004 -1.410388 0.000022 1.410393 -0.000000 -0.000002 0.000000 21.665014 0.000001 -3.045002 7.689190 10.068750 -8.904841 0.000063 -0.000008 -15.549992 -22.292790 -2.382649 62.993995 -19.070621 0.000015 -19.070713 61.438706 -38.895233 -61.438720 -18.782471 0.000020 -18.782457 -33.555681 54.094586 -75.735672 -4.939486 -1.249045 -0.422045 54.735616 30.000001 54.735606 -2.517296 -0.000013 -2.517307 -0.000002 -0.000003 -0.000003 -1.826102 -0.000005 -1.826103 -0.000004 -0.000005 0.000001 -8.597704 -0.000006 -5.278141 -0.000000 -0.000002 0.000001 -2.302901 -0.000001 -2.302883 0.000000 0.000007 -0.000000 -1.960189 0.000000 -1.960205 -0.000000 0.000000 -0.000002 -7.533900 -0.000008 -7.091248 0.000000 -0.000002 0.000000 -2.425843 0.000002 -2.425853 -0.000000 0.000007 -0.000001 -2.089239 -0.000000 -2.089256 0.000000 0.000000 -0.000001 -5.804098 -0.000006 -8.321629 -0.000000 -0.000002 0.000001 -2.291878 -0.000003 -2.291862 -0.000000 0.000007 -0.000000 -1.953948 -0.000003 -1.953979 0.000000 0.000000 -0.000000 -3.770289 -0.000005 -8.934917 0.000000 -0.000002 0.000002 -1.968674 0.000006 -1.968658 0.000002 0.000003 -0.000001 -1.410383 0.000001 -1.410385 -0.000000 0.000003 0.000000 -0.000002 0.000014 9.994125 -6.137097 183.542442 28.125430 41.202614 0.000015 0.000001 0.000000 -0.000001 -57.622201 40.704830 -0.000007 -0.000003 -9.150442 -4.892940 -1.633027 8.953583 12.877177 0.000002 -1.830629 -1.828993 112.211914 5.535667 0.000001 -0.000007 0.000000 -0.000000 0.000000 0.000020 -0.000006 -9.994124 -10.613718 181.066061 22.127778 41.202614 0.000005 -0.000000 -0.000001 0.000000 -47.533062 40.704853 -0.000013 -0.000001 -2.845421 2.127214 4.214172 8.953574 12.877168 0.000001 -0.805139 -0.740392 111.053132 5.535683 0.000001 0.000000 -0.000000 -0.000000 0.000000 55.280914 0.000000 -0.964944 -0.000008 1.000000 -0.000000 
30.633425 88.988426 106.376701 352.246379 105.377204 -257.111516 10.005942 0.000002 0.000009 -3.833914 2.368016 3.237509 21.664995 0.000004 -0.000002 -8.783614 -1.128781 2.240488 25.833012 -0.000002 0.000002 -2.873803 -1.515592 1.409916 14.033590 0.000010 0.000001 -2.258388 6.587390 -10.262546 21.600494 0.000001 0.000004 0.000000 -0.000000 -0.000000 21.665007 0.000002 3.045002 4.499295 -16.483246 -6.679931 0.000026 0.000010 15.550001 -48.155245 -1.330443 14.003638 -19.070627 -0.000002 19.070694 -64.403138 43.267804 -64.403138 -18.782461 0.000003 18.782459 25.917658 -40.390856 -67.554908 -4.939497 -1.249020 0.422036 54.735606 -30.000008 -54.735616 -2.517308 0.000008 2.517296 -0.000003 -0.000003 -0.000002 -1.826108 -0.000017 1.826119 -0.000003 0.000002 0.000003 -8.597698 0.000024 5.278141 -0.000001 -0.000003 -0.000006 -2.302900 0.000013 2.302887 0.000001 -0.000003 0.000003 -1.960211 -0.000005 1.960190 -0.000000 -0.000002 0.000001 -7.533891 0.000021 7.091248 -0.000002 -0.000003 -0.000006 -2.425848 0.000008 2.425850 -0.000001 -0.000000 0.000001 -2.089236 0.000001 2.089241 0.000001 -0.000000 -0.000001 -5.804087 0.000018 8.321632 -0.000001 -0.000003 -0.000004 -2.291885 -0.000000 2.291877 0.000001 -0.000012 0.000000 -1.953964 -0.000008 1.953972 0.000002 -0.000000 0.000002 -3.770280 0.000029 8.934921 -0.000002 -0.000003 -0.000003 -1.968666 0.000010 1.968658 0.000001 -0.000007 -0.000000 -1.410392 -0.000013 1.410393 -0.000000 -0.000002 -0.000001 21.665014 -0.000009 -3.044999 7.154311 11.630111 -9.209263 0.000063 -0.000008 -15.549986 -22.348497 0.995957 56.880729 -19.070641 0.000009 -19.070709 61.148361 -38.481395 -61.148389 -18.782475 -0.000013 -18.782446 -34.845091 54.540188 -73.334689 -4.939497 -1.249042 -0.422041 54.735620 30.000004 54.735606 -2.517298 0.000003 -2.517299 0.000002 0.000003 0.000002 -1.826110 -0.000023 -1.826110 0.000002 0.000000 -0.000000 -8.597713 0.000001 -5.278137 0.000000 -0.000002 -0.000001 -2.302890 0.000002 -2.302883 0.000002 0.000007 0.000002 -1.960196 0.000000 -1.960197 -0.000000 -0.000003 0.000001 -7.533908 0.000001 -7.091236 -0.000001 -0.000002 -0.000000 -2.425832 -0.000001 -2.425838 0.000001 0.000005 -0.000000 -2.089216 0.000001 -2.089256 -0.000001 0.000007 0.000002 -5.804106 0.000003 -8.321621 0.000000 -0.000002 -0.000001 -2.291881 0.000005 -2.291884 0.000002 0.000007 0.000001 -1.953964 0.000002 -1.953987 0.000000 0.000003 0.000003 -3.770298 -0.000003 -8.934910 0.000001 -0.000002 -0.000002 -1.968657 -0.000003 -1.968673 0.000000 0.000007 0.000002 -1.410361 0.000001 -1.410392 0.000002 0.000000 0.000004 -0.000014 0.000013 9.994123 -4.998513 184.403387 35.797940 41.202610 0.000008 -0.000003 -0.000001 -0.000000 -67.086781 40.704830 -0.000010 0.000001 -8.485502 -6.689423 -10.370034 8.953569 12.877196 0.000006 -0.981436 -1.024083 107.967881 5.535659 -0.000006 -0.000003 -0.000001 -0.000000 0.000001 0.000014 -0.000019 -9.994126 -11.245283 181.804691 19.334099 41.202614 0.000002 0.000001 0.000000 -0.000000 -43.842981 40.704853 0.000014 -0.000001 -2.208532 0.056922 9.305594 8.953566 12.877186 0.000000 0.380257 0.036652 108.555325 5.535675 -0.000001 0.000000 0.000000 -0.000000 -0.000000 55.280914 0.000000 -0.964944 -0.000008 1.000000 -0.000000 
30.353668 88.422112 106.198410 351.074674 104.059530 -255.771269 10.005937 0.000010 0.000014 -0.688714 3.327438 3.203506 21.665005 0.000008 0.000001 -8.044192 -0.874448 2.188996 25.833012 0.000004 -0.000001 -3.797391 -2.680273 0.558425 14.033590 0.000004 0.000000 -3.264904 6.456602 -9.755903 21.600517 -0.000007 -0.000000 -0.000000 -0.000000 0.000000 21.665009 -0.000001 3.044998 4.260777 -17.601862 -6.835271 -0.000025 0.000007 15.550013 -40.125275 -6.572493 17.101057 -19.070646 -0.000000 19.070704 -64.062393 42.751633 -64.062400 -18.782484 0.000003 18.782467 24.226771 -41.263072 -67.894027 -4.939501 -1.249046 0.422059 54.735616 -30.000008 -54.735613 -2.517296 -0.000017 2.517292 -0.000002 -0.000007 0.000000 -1.826090 -0.000006 1.826115 0.000001 -0.000002 0.000000 -8.597707 0.000001 5.278149 0.000002 -0.000002 -0.000000 -2.302884 0.000000 2.302879 0.000006 -0.000003 -0.000000 -1.960210 -0.000011 1.960197 0.000003 -0.000000 0.000002 -7.533910 -0.000011 7.091267 0.000004 -0.000005 0.000001 -2.425847 -0.000013 2.425834 0.000005 -0.000003 0.000000 -2.089243 0.000007 2.089241 -0.000001 -0.000002 -0.000002 -5.804099 0.000001 8.321671 0.000002 -0.000002 0.000000 -2.291868 -0.000000 2.291870 0.000006 -0.000003 -0.000000 -1.953982 0.000007 1.953979 0.000003 -0.000002 0.000001 -3.770301 -0.000009 8.934914 0.000003 -0.000002 0.000002 -1.968654 -0.000017 1.968651 0.000005 -0.000009 0.000001 -1.410378 -0.000004 1.410362 -0.000004 -0.000002 -0.000000 21.665014 0.000003 -3.045005 6.683839 12.993755 -9.447401 0.000076 0.000017 -15.549992 -20.688401 4.353605 50.266473 -19.070631 0.000017 -19.070702 61.084171 -38.390243 -61.084178 -18.782469 0.000036 -18.782454 -37.096666 55.562230 -70.967537 -4.939493 -1.249035 -0.422047 54.735616 30.000001 54.735606 -2.517312 -0.000006 -2.517299 0.000001 0.000005 0.000001 -1.826121 0.000009 -1.826111 0.000002 -0.000003 0.000001 -8.597713 0.000003 -5.278137 -0.000001 -0.000003 -0.000000 -2.302895 0.000006 -2.302890 0.000002 0.000003 0.000005 -1.960176 -0.000002 -1.960205 -0.000000 -0.000003 0.000000 -7.533908 -0.000001 -7.091248 -0.000001 -0.000003 -0.000000 -2.425840 -0.000000 -2.425838 0.000001 0.000007 0.000001 -2.089230 -0.000005 -2.089249 -0.000000 0.000000 -0.000001 -5.804111 0.000002 -8.321621 -0.000001 -0.000003 0.000000 -2.291876 -0.000001 -2.291884 0.000001 0.000003 0.000002 -1.953978 0.000001 -1.953979 -0.000001 0.000000 -0.000001 -3.770292 -0.000003 -8.934933 -0.000001 -0.000003 -0.000001 -1.968674 0.000005 -1.968657 0.000002 0.000003 0.000001 -1.410376 -0.000005 -1.410385 0.000001 -0.000003 -0.000002 -0.000015 0.000017 9.994129 -3.520885 185.253923 43.405190 41.202610 -0.000013 -0.000005 -0.000000 0.000000 -75.675948 40.704842 0.000005 0.000001 -8.492159 -8.344649 -16.767804 8.953578 12.877198 0.000005 -3.664265 -1.802232 95.567392 5.535659 -0.000004 0.000004 -0.000001 -0.000001 0.000001 0.000019 -0.000004 -9.994124 -11.054541 182.486440 18.267529 41.202614 -0.000011 -0.000002 -0.000000 0.000000 -41.973719 40.704834 -0.000007 -0.000002 -1.436435 -1.906635 12.449392 8.953562 12.877174 0.000001 1.474901 0.679427 107.047608 5.535675 0.000000 -0.000001 -0.000000 -0.000000 -0.000000 55.280914 0.000000 -0.964944 -0.000008 1.000000 -0.000000 
